<mxfile host="Electron" modified="2025-04-06T16:51:44.434Z" agent="Mozilla/5.0 (Windows NT 10.0; Win64; x64) AppleWebKit/537.36 (KHTML, like Gecko) draw.io/22.0.3 Chrome/114.0.5735.289 Electron/25.8.4 Safari/537.36" etag="bufLtv0_s4YIhcioUaQ0" version="22.0.3" type="device" pages="3">
  <diagram name="selenium" id="9iy_4iQsms4ijQ-rDRHt">
    <mxGraphModel dx="3844" dy="1480" grid="0" gridSize="10" guides="0" tooltips="1" connect="1" arrows="1" fold="1" page="1" pageScale="1" pageWidth="827" pageHeight="1169" math="0" shadow="0">
      <root>
        <mxCell id="0" />
        <mxCell id="1" parent="0" />
        <mxCell id="usIYUvxiIXVekD-gWqzG-1" value="&lt;b&gt;&lt;font style=&quot;font-size: 20px&quot;&gt;Lorem Ipsum&lt;/font&gt;&lt;/b&gt;&lt;br style=&quot;font-size: 14px&quot;&gt;&lt;br style=&quot;font-size: 14px&quot;&gt;Lorem ipsum dolor sit amet, consectetur adipiscing elit. Sed do eiusmod tempor incididunt ut&amp;nbsp;" style="html=1;shadow=0;dashed=0;shape=mxgraph.bootstrap.rrect;rSize=5;strokeColor=#33A64C;html=1;whiteSpace=wrap;fillColor=#ffffff;fontColor=#33A64C;verticalAlign=bottom;align=left;spacing=20;spacingBottom=0;fontSize=14;" parent="1" vertex="1">
          <mxGeometry x="259" y="331" width="280" height="179" as="geometry" />
        </mxCell>
        <mxCell id="usIYUvxiIXVekD-gWqzG-2" value="&lt;b&gt;Firefox&lt;/b&gt;" style="html=1;shadow=0;dashed=0;shape=mxgraph.bootstrap.topButton;rSize=5;perimeter=none;whiteSpace=wrap;fillColor=#F7F7F7;strokeColor=#33A64C;fontColor=#6C767D;resizeWidth=1;fontSize=18;align=left;spacing=20;" parent="usIYUvxiIXVekD-gWqzG-1" vertex="1">
          <mxGeometry width="280" height="50" relative="1" as="geometry" />
        </mxCell>
        <mxCell id="usIYUvxiIXVekD-gWqzG-3" value="" style="shape=image;aspect=fixed;image=data:image/png,iVBORw0KGgoAAAANSUhEUgAAACcAAAAsCAYAAADmZKH2AAAAAXNSR0IArs4c6QAAAARnQU1BAACxjwv8YQUAAAAJcEhZcwAADsMAAA7DAcdvqGQAAAfLSURBVFhH7ZhdjFxVHcB//3POvTNzZ3dmd7vT3S2VFgqlS5E2FIzUUFQ+E1CsJEqiGKIRExJMjCZK8EF9MOGZVxPjKxrDgxiVYggxoEEUFEgVLV/93u3sfN/vc3y409Lu7LbLggkP/SX/zMydc+79zf+c+z/njszPzzs+oqjlBz5KXJRbLxfl1suHLmeMsP0Kn588spGHH5yiUpHlTdbMhyqnNdyyL+CxRxvce/c499w5zif3BCi1PsEPVW5mWvPVe2tcuc0gWphraL79jTqNDXp50zWxJjkloNfQcs81Ja7eYlBKgXWIgu1bfb7/0CQTtTWcYBkX7DFWcnx2R8p1WywyHB2tBbMsGVrDfXeUqHgZpBnkOViLKMctn/J5+IEa05MXvNw5nLe1Vo7P74h49NYu2zdmAFR94YvX+2yaOtdu1xWGa7fkEGeQZJDlkFuwFs8I+28t8+W7AsYCRbl83sue4bytdm3I+PrOATN+RqByttY0j905xld2l8Ge2/b260DnOcQJRAkkeZHBzELuKJcUD+wP2H9blfu/UGdm+sLzUDcajR8tPwgwW3H89IaIbZM5iGWyItw4WePGGU0/gd8cTAnjErP6Mnb5+9gzuRvT3k4WBmg1QHspIg6sBefAgW8Mcw1Nfcxj3yfKPP/3iChefd+xolzVwA925uxtWEQXnaeqKZs29dCTA8TPOHxsM9v7D3B76X52mb2YxWtZ+vdujr58A8de3U0aa8ZnDqNVDA5AwCkmAqHdytkxX2HhVMbBQwluFb8ROQFumoKvfQwCbzjw4hBxiLKgM0rljI9fJkzEN+PCebQqo/EQZ3CZR575tI7MkEWOibl30ToDqwCFiKY2rij7QrXieO6vEWG0st2IXFnBl2YVe2puWDxdYQzD4SlEgyBkduvLSMWy1JondQFOCQ7Bn+iw7a6nqV/+NlrH+DoEK0U4hacMSkD5jhdfiTm+mJ+tcIaRGyLQwhYtqNhAokApmAK2GNhWhdlx8DxILb5ZYPuun3HD577L5I6/EJUUse/RaW3kjT/chl9JqG7qgicQAyEQAQlghVpFmJ02yOkatYwRuYoIDWtQuYHEgAHqOZQdaGDMg0sm4JIpmJlAzVao7zzO5s8cIAwUoe8RGp/m4iwHf7+PpO2BzousD6QQHAhYR7Vk2DrnoVe5cUfkqiIEeBCbIk6W4T8BLGqI3Zna1Q7n+Odbd/Ps377D7/74Yw789hE6KqDvaUIjhKJ4+9WraP53IyQJSFyI9QT6AsSQQK2i0ausvSNyvlV4iYZ0GJEHJ8rwWgBvFcN56M15fvHLH/LkgYd47qX9/OONvSzGNSItxAoigRjHUrNO9+RYUZiztPhxfVXUPpdCDHW/mH8rMSKX5ookPitzsYHIwMBAU3PyRIMnnrqPQyc3cCqxtFxEW/q09YCOCumRENm0iDxj0PRwvRwGroi+gB9CYnE9RdgDZ1e+W0fkokxIeuWhmFeIRV4RSz6tY3UWukIvbdNLW3SyFp28TTdv07FtenmHft4nTEOctKmYRaQNNA1uycORgoqLedfW9FqOVdxG5frOcarv4xIDsYZkGJGBrs9me4Ja7Rhx2iNKOkRJlzDtMkg7hEmHMOkSJl3ipE8QHKVumtAy0DK4GAh6kOS4vpC2hWMLKWm2st2IXCSWd0Mh7pliziXDDCYaQkNwRPHpzX8m0EvYfp+81yXtt0kGbeKwQxy1iaM2Wdpmy/TrTNOEpgddhYx1EZvBQHALJXpNzdFT2bD0jzJShDMcG6JxroknGSulRTcr4IYRGTbJErV6h5Yr0+4GkKS4JMHFERLFVLI21068ws2X/okxGxf9ShmiLWQKF3nkC3UOLVp+9XqLVlTseJYzIucE2irj+uYl1EVRKqXvfeEErELHwqUsMh+8TVlikszQTUvUpMN1pYPcMfE8eydfou53EZ2DsUXfXEGmyJrjuG7AM+/0eOZwm2yVSScr/R0hDu7pbeVbgzlmNi1RqkSIyYtiatzw1YK2pFpIlCEVhRJLSVJ8nRZZMg7KUkSpiNyVSZem6Tnhe6+9w4vNHm6VlX8kc1BMgUN+l9lwnLl4DM9zxTbdCmKL7J0ObcG3lrLNKbkM4xxiVZGlVBdLYFpkzA5KJMenSAYVfn28xZMnTmFXEWNVOSAXx1t+yNXdBqWwglbFVrwY2qFk/p4k+XvDRq6L96c/J4qsX2ZwdANJp8qBfofHFw4T2ZUX/NOsKgfQVylNk3F5v44XBmS5IKJQUuwunFNFlk6LnhMaMkUee8TNMQaHp4k7VV7IujwevkPTxssvN8KKc+5sNIqrogm+2d7GVXmA8mK8ckxQTalUMrSyiMoRHCiLYEFBniv63TJxP8BGFbLc8HSwwM/H3mRRIlyxAz0vF5QrEKazgAdbV3J9WMXXCqVTnMrwSjmeyRHlEBwuV2SZIY99lPVQ1qNpHU+NH+GJ8TcZqOHdvwbWKAcg+M6wM5rgprDBjmSMSaepWo1XbJcRIHOOVBShZBzRMa+XurxQOcm//BZOlj0VXYD3ITfECSVrmLAlGnmZjVmZwJmhGmRYepJxysQcNX36OiUhO/PM+354/3JnkDMPLmdftzjZ8JRy1vt1MLK2rh1XVGuxuLMCscPj7gOJ8cHk/v9clFsvF+XWy0W59fI/W+KJ3jfKcCEAAAAASUVORK5CYII=;" parent="usIYUvxiIXVekD-gWqzG-1" vertex="1">
          <mxGeometry x="229.60000000000002" y="4.972222222222222" width="38.78333333333333" height="43.75555555555556" as="geometry" />
        </mxCell>
        <mxCell id="usIYUvxiIXVekD-gWqzG-6" value="selenium" style="html=1;shadow=0;dashed=0;shape=mxgraph.bootstrap.rrect;rSize=5;strokeColor=#666666;strokeWidth=1;fillColor=#f5f5f5;fontColor=#333333;whiteSpace=wrap;align=center;verticalAlign=middle;spacingLeft=0;fontStyle=0;fontSize=16;spacing=5;" parent="1" vertex="1">
          <mxGeometry x="320" y="620" width="160" height="80" as="geometry" />
        </mxCell>
        <mxCell id="usIYUvxiIXVekD-gWqzG-7" value="" style="shape=flexArrow;endArrow=classic;startArrow=classic;html=1;rounded=0;" parent="1" edge="1">
          <mxGeometry width="100" height="100" relative="1" as="geometry">
            <mxPoint x="401" y="621" as="sourcePoint" />
            <mxPoint x="400" y="511" as="targetPoint" />
          </mxGeometry>
        </mxCell>
        <mxCell id="usIYUvxiIXVekD-gWqzG-8" value="" style="fontColor=#0066CC;verticalAlign=top;verticalLabelPosition=bottom;labelPosition=center;align=center;html=1;outlineConnect=0;fillColor=#CCCCCC;strokeColor=#6881B3;gradientColor=none;gradientDirection=north;strokeWidth=2;shape=mxgraph.networks.rack;" parent="1" vertex="1">
          <mxGeometry x="363" y="81" width="72" height="120" as="geometry" />
        </mxCell>
        <mxCell id="usIYUvxiIXVekD-gWqzG-9" value="" style="shape=flexArrow;endArrow=classic;startArrow=classic;html=1;rounded=0;entryX=0.5;entryY=1;entryDx=0;entryDy=0;entryPerimeter=0;exitX=0.5;exitY=-0.04;exitDx=0;exitDy=0;exitPerimeter=0;" parent="1" edge="1">
          <mxGeometry width="100" height="100" relative="1" as="geometry">
            <mxPoint x="400" y="329" as="sourcePoint" />
            <mxPoint x="400" y="201" as="targetPoint" />
          </mxGeometry>
        </mxCell>
        <mxCell id="JCf7mnqvbxsUBlo43Zsg-1" value="&lt;font color=&quot;#00cc00&quot;&gt;driver:Driver = Driver(Chrome)&lt;br&gt;driver.execute_locator(locator)&lt;/font&gt;" style="html=1;shadow=0;dashed=0;shape=mxgraph.bootstrap.rrect;rSize=5;strokeColor=#6C767D;strokeWidth=1;fillColor=#080808;fontColor=#6C767D;whiteSpace=wrap;align=left;verticalAlign=middle;spacingLeft=0;fontStyle=0;fontSize=16;spacing=5;" parent="1" vertex="1">
          <mxGeometry x="150" y="545" width="230" height="55" as="geometry" />
        </mxCell>
        <mxCell id="bbrvCE03OxqFIxSEQbTr-13" value="" style="group" parent="1" vertex="1" connectable="0">
          <mxGeometry x="329" y="770" width="170" height="110" as="geometry" />
        </mxCell>
        <mxCell id="bbrvCE03OxqFIxSEQbTr-7" value="" style="rounded=1;whiteSpace=wrap;html=1;" parent="bbrvCE03OxqFIxSEQbTr-13" vertex="1">
          <mxGeometry width="120" height="60" as="geometry" />
        </mxCell>
        <mxCell id="bbrvCE03OxqFIxSEQbTr-8" value="" style="rounded=1;whiteSpace=wrap;html=1;" parent="bbrvCE03OxqFIxSEQbTr-13" vertex="1">
          <mxGeometry x="10" y="10" width="120" height="60" as="geometry" />
        </mxCell>
        <mxCell id="bbrvCE03OxqFIxSEQbTr-9" value="" style="rounded=1;whiteSpace=wrap;html=1;" parent="bbrvCE03OxqFIxSEQbTr-13" vertex="1">
          <mxGeometry x="20" y="20" width="120" height="60" as="geometry" />
        </mxCell>
        <mxCell id="bbrvCE03OxqFIxSEQbTr-10" value="" style="rounded=1;whiteSpace=wrap;html=1;" parent="bbrvCE03OxqFIxSEQbTr-13" vertex="1">
          <mxGeometry x="30" y="30" width="120" height="60" as="geometry" />
        </mxCell>
        <mxCell id="bbrvCE03OxqFIxSEQbTr-11" value="" style="rounded=1;whiteSpace=wrap;html=1;" parent="bbrvCE03OxqFIxSEQbTr-13" vertex="1">
          <mxGeometry x="40" y="40" width="120" height="60" as="geometry" />
        </mxCell>
        <mxCell id="bbrvCE03OxqFIxSEQbTr-12" value="webelements" style="rounded=1;whiteSpace=wrap;html=1;" parent="bbrvCE03OxqFIxSEQbTr-13" vertex="1">
          <mxGeometry x="50" y="50" width="120" height="60" as="geometry" />
        </mxCell>
        <mxCell id="bbrvCE03OxqFIxSEQbTr-14" value="" style="shape=flexArrow;endArrow=classic;html=1;rounded=0;entryX=0.575;entryY=0.016;entryDx=0;entryDy=0;entryPerimeter=0;" parent="1" edge="1">
          <mxGeometry width="50" height="50" relative="1" as="geometry">
            <mxPoint x="400" y="700" as="sourcePoint" />
            <mxPoint x="400" y="770.9600000000002" as="targetPoint" />
          </mxGeometry>
        </mxCell>
        <mxCell id="ZNAa7g_VYyZ0Uu3Rac07-1" value="נתונים" style="text;html=1;align=center;verticalAlign=middle;resizable=0;points=[];autosize=1;strokeColor=none;fillColor=none;fontSize=48;" vertex="1" parent="1">
          <mxGeometry x="520" y="800.0044444444445" width="140" height="70" as="geometry" />
        </mxCell>
        <mxCell id="usIYUvxiIXVekD-gWqzG-4" value="דפדפן" style="text;html=1;align=center;verticalAlign=middle;resizable=0;points=[];autosize=1;strokeColor=none;fillColor=none;fontSize=48;" parent="1" vertex="1">
          <mxGeometry x="513" y="239.00444444444446" width="140" height="70" as="geometry" />
        </mxCell>
      </root>
    </mxGraphModel>
  </diagram>
  <diagram id="BfU7apK0MV4M4JS9sx-P" name="requests">
    <mxGraphModel dx="3203" dy="1233" grid="0" gridSize="10" guides="1" tooltips="1" connect="1" arrows="1" fold="1" page="1" pageScale="1" pageWidth="827" pageHeight="1169" math="0" shadow="0">
      <root>
        <mxCell id="0" />
        <mxCell id="1" parent="0" />
        <mxCell id="6HtErXHUuEDMDXWQa0li-5" value="requests" style="html=1;shadow=0;dashed=0;shape=mxgraph.bootstrap.rrect;rSize=5;strokeColor=#666666;strokeWidth=1;fillColor=#f5f5f5;fontColor=#333333;whiteSpace=wrap;align=center;verticalAlign=middle;spacingLeft=0;fontStyle=0;fontSize=16;spacing=5;" parent="1" vertex="1">
          <mxGeometry x="329" y="560" width="160" height="80" as="geometry" />
        </mxCell>
        <mxCell id="6HtErXHUuEDMDXWQa0li-7" value="" style="fontColor=#0066CC;verticalAlign=top;verticalLabelPosition=bottom;labelPosition=center;align=center;html=1;outlineConnect=0;fillColor=#CCCCCC;strokeColor=#6881B3;gradientColor=none;gradientDirection=north;strokeWidth=2;shape=mxgraph.networks.rack;" parent="1" vertex="1">
          <mxGeometry x="373" y="80" width="72" height="120" as="geometry" />
        </mxCell>
        <mxCell id="6HtErXHUuEDMDXWQa0li-8" value="" style="shape=flexArrow;endArrow=classic;startArrow=classic;html=1;rounded=0;entryX=0.5;entryY=1;entryDx=0;entryDy=0;entryPerimeter=0;width=24;" parent="1" source="6HtErXHUuEDMDXWQa0li-5" target="6HtErXHUuEDMDXWQa0li-7" edge="1">
          <mxGeometry width="100" height="100" relative="1" as="geometry">
            <mxPoint x="409" y="332" as="sourcePoint" />
            <mxPoint x="415" y="204" as="targetPoint" />
          </mxGeometry>
        </mxCell>
        <mxCell id="yjxiLoVBdJWlrKSehDYT-4" value="" style="html=1;shadow=0;dashed=0;shape=mxgraph.bootstrap.rrect;rSize=5;strokeColor=#DFDFDF;html=1;whiteSpace=wrap;fillColor=#FFFFFF;fontColor=#000000;" parent="1" vertex="1">
          <mxGeometry x="128" y="241" width="240" height="220" as="geometry" />
        </mxCell>
        <mxCell id="yjxiLoVBdJWlrKSehDYT-5" value="&lt;b&gt;HTTP&lt;/b&gt;" style="html=1;shadow=0;dashed=0;shape=mxgraph.bootstrap.topButton;strokeColor=inherit;fillColor=#33A64C;rSize=5;perimeter=none;whiteSpace=wrap;resizeWidth=1;align=left;spacing=10;fontColor=#E6E6E6;" parent="yjxiLoVBdJWlrKSehDYT-4" vertex="1">
          <mxGeometry width="240" height="30" relative="1" as="geometry" />
        </mxCell>
        <mxCell id="yjxiLoVBdJWlrKSehDYT-6" value="&lt;b&gt;GET&lt;/b&gt;&amp;nbsp;запрос данных от сервера (без изменения состояния)" style="strokeColor=inherit;fillColor=inherit;gradientColor=inherit;fontColor=inherit;html=1;shadow=0;dashed=0;perimeter=none;whiteSpace=wrap;resizeWidth=1;align=left;spacing=10;" parent="yjxiLoVBdJWlrKSehDYT-4" vertex="1">
          <mxGeometry width="240" height="30" relative="1" as="geometry">
            <mxPoint y="30" as="offset" />
          </mxGeometry>
        </mxCell>
        <mxCell id="yjxiLoVBdJWlrKSehDYT-7" value="&lt;b&gt;POST&lt;/b&gt; отправка данных на сервер (например, форма, загрузка файла)" style="strokeColor=inherit;fillColor=inherit;gradientColor=inherit;fontColor=inherit;html=1;shadow=0;dashed=0;perimeter=none;whiteSpace=wrap;resizeWidth=1;align=left;spacing=10;" parent="yjxiLoVBdJWlrKSehDYT-4" vertex="1">
          <mxGeometry width="240" height="30" relative="1" as="geometry">
            <mxPoint y="60" as="offset" />
          </mxGeometry>
        </mxCell>
        <mxCell id="yjxiLoVBdJWlrKSehDYT-8" value="&lt;b&gt;CONNECT&lt;/b&gt;&amp;nbsp;используется для туннелирования (например, в HTTPS)" style="strokeColor=inherit;fillColor=inherit;gradientColor=inherit;fontColor=inherit;html=1;shadow=0;dashed=0;shape=mxgraph.bootstrap.bottomButton;rSize=5;perimeter=none;whiteSpace=wrap;resizeWidth=1;resizeHeight=0;align=left;spacing=10;" parent="yjxiLoVBdJWlrKSehDYT-4" vertex="1">
          <mxGeometry y="1" width="240" height="30" relative="1" as="geometry">
            <mxPoint y="19" as="offset" />
          </mxGeometry>
        </mxCell>
        <mxCell id="yjxiLoVBdJWlrKSehDYT-9" value="&lt;b&gt;PUT&lt;/b&gt;&amp;nbsp;обновление или создание ресурса (идемпотентный)" style="strokeColor=inherit;fillColor=inherit;gradientColor=inherit;fontColor=inherit;html=1;shadow=0;dashed=0;perimeter=none;whiteSpace=wrap;resizeWidth=1;align=left;spacing=10;" parent="yjxiLoVBdJWlrKSehDYT-4" vertex="1">
          <mxGeometry y="90" width="240" height="30" as="geometry" />
        </mxCell>
        <mxCell id="s0eaTPi8BARIKoo4Gqop-1" value="&lt;b&gt;HEAD&amp;nbsp;&lt;/b&gt;аналогичен GET, но возвращает только заголовки (без тела ответа)" style="strokeColor=inherit;fillColor=inherit;gradientColor=inherit;fontColor=inherit;html=1;shadow=0;dashed=0;perimeter=none;whiteSpace=wrap;resizeWidth=1;align=left;spacing=10;" parent="yjxiLoVBdJWlrKSehDYT-4" vertex="1">
          <mxGeometry y="120" width="240" height="30" as="geometry" />
        </mxCell>
        <mxCell id="s0eaTPi8BARIKoo4Gqop-2" value="&lt;b style=&quot;border-color: var(--border-color);&quot;&gt;DELETE&lt;/b&gt;&amp;nbsp;удаление ресурса" style="strokeColor=inherit;fillColor=inherit;gradientColor=inherit;fontColor=inherit;html=1;shadow=0;dashed=0;perimeter=none;whiteSpace=wrap;resizeWidth=1;align=left;spacing=10;" parent="yjxiLoVBdJWlrKSehDYT-4" vertex="1">
          <mxGeometry y="150" width="240" height="30" as="geometry" />
        </mxCell>
        <mxCell id="s0eaTPi8BARIKoo4Gqop-3" value="&lt;b&gt;OPTIONS&amp;nbsp;&lt;/b&gt;запрос поддерживаемых методов для ресурса" style="strokeColor=inherit;fillColor=inherit;gradientColor=inherit;fontColor=inherit;html=1;shadow=0;dashed=0;perimeter=none;whiteSpace=wrap;resizeWidth=1;align=left;spacing=10;" parent="yjxiLoVBdJWlrKSehDYT-4" vertex="1">
          <mxGeometry y="180" width="240" height="30" as="geometry" />
        </mxCell>
        <mxCell id="s0eaTPi8BARIKoo4Gqop-4" value="&lt;b&gt;TRACE&amp;nbsp;&lt;/b&gt;эхо-тест для диагностики" style="strokeColor=inherit;fillColor=inherit;gradientColor=inherit;fontColor=inherit;html=1;shadow=0;dashed=0;perimeter=none;whiteSpace=wrap;resizeWidth=1;align=left;spacing=10;" parent="yjxiLoVBdJWlrKSehDYT-4" vertex="1">
          <mxGeometry y="209" width="240" height="30" as="geometry" />
        </mxCell>
        <mxCell id="s0eaTPi8BARIKoo4Gqop-5" value="Raw Data" style="shape=card;whiteSpace=wrap;html=1;" parent="1" vertex="1">
          <mxGeometry x="373" y="680" width="80" height="100" as="geometry" />
        </mxCell>
        <mxCell id="s0eaTPi8BARIKoo4Gqop-6" value="" style="endArrow=classic;html=1;rounded=0;entryX=0.469;entryY=0.011;entryDx=0;entryDy=0;entryPerimeter=0;exitX=0.5;exitY=1.003;exitDx=0;exitDy=0;exitPerimeter=0;" parent="1" source="6HtErXHUuEDMDXWQa0li-5" target="s0eaTPi8BARIKoo4Gqop-5" edge="1">
          <mxGeometry width="50" height="50" relative="1" as="geometry">
            <mxPoint x="400" y="680" as="sourcePoint" />
            <mxPoint x="450" y="630" as="targetPoint" />
          </mxGeometry>
        </mxCell>
        <mxCell id="_bS-ekIPAcyunkdptFEt-1" value="bs4" style="html=1;shadow=0;dashed=0;shape=mxgraph.bootstrap.rrect;rSize=5;strokeColor=#666666;strokeWidth=1;fillColor=#f5f5f5;fontColor=#333333;whiteSpace=wrap;align=center;verticalAlign=middle;spacingLeft=0;fontStyle=0;fontSize=16;spacing=5;" parent="1" vertex="1">
          <mxGeometry x="334" y="830" width="160" height="80" as="geometry" />
        </mxCell>
        <mxCell id="_bS-ekIPAcyunkdptFEt-2" value="" style="endArrow=classic;html=1;rounded=0;entryX=0.472;entryY=-0.01;entryDx=0;entryDy=0;entryPerimeter=0;exitX=0.461;exitY=1;exitDx=0;exitDy=0;exitPerimeter=0;" parent="1" source="s0eaTPi8BARIKoo4Gqop-5" target="_bS-ekIPAcyunkdptFEt-1" edge="1">
          <mxGeometry width="50" height="50" relative="1" as="geometry">
            <mxPoint x="407.89" y="840" as="sourcePoint" />
            <mxPoint x="409.89" y="941" as="targetPoint" />
          </mxGeometry>
        </mxCell>
        <mxCell id="otDYtx1_lC2BkY7mTGnZ-1" value="" style="group" parent="1" vertex="1" connectable="0">
          <mxGeometry x="339" y="959" width="170" height="110" as="geometry" />
        </mxCell>
        <mxCell id="otDYtx1_lC2BkY7mTGnZ-2" value="" style="rounded=1;whiteSpace=wrap;html=1;" parent="otDYtx1_lC2BkY7mTGnZ-1" vertex="1">
          <mxGeometry width="120" height="60" as="geometry" />
        </mxCell>
        <mxCell id="otDYtx1_lC2BkY7mTGnZ-3" value="" style="rounded=1;whiteSpace=wrap;html=1;" parent="otDYtx1_lC2BkY7mTGnZ-1" vertex="1">
          <mxGeometry x="10" y="10" width="120" height="60" as="geometry" />
        </mxCell>
        <mxCell id="otDYtx1_lC2BkY7mTGnZ-4" value="" style="rounded=1;whiteSpace=wrap;html=1;" parent="otDYtx1_lC2BkY7mTGnZ-1" vertex="1">
          <mxGeometry x="20" y="20" width="120" height="60" as="geometry" />
        </mxCell>
        <mxCell id="otDYtx1_lC2BkY7mTGnZ-5" value="" style="rounded=1;whiteSpace=wrap;html=1;" parent="otDYtx1_lC2BkY7mTGnZ-1" vertex="1">
          <mxGeometry x="30" y="30" width="120" height="60" as="geometry" />
        </mxCell>
        <mxCell id="otDYtx1_lC2BkY7mTGnZ-6" value="" style="rounded=1;whiteSpace=wrap;html=1;" parent="otDYtx1_lC2BkY7mTGnZ-1" vertex="1">
          <mxGeometry x="40" y="40" width="120" height="60" as="geometry" />
        </mxCell>
        <mxCell id="otDYtx1_lC2BkY7mTGnZ-7" value="Structured Data" style="rounded=1;whiteSpace=wrap;html=1;" parent="otDYtx1_lC2BkY7mTGnZ-1" vertex="1">
          <mxGeometry x="50" y="50" width="120" height="60" as="geometry" />
        </mxCell>
        <mxCell id="otDYtx1_lC2BkY7mTGnZ-8" value="" style="endArrow=classic;html=1;rounded=0;entryX=0.472;entryY=-0.01;entryDx=0;entryDy=0;entryPerimeter=0;exitX=0.461;exitY=1;exitDx=0;exitDy=0;exitPerimeter=0;" parent="1" edge="1">
          <mxGeometry width="50" height="50" relative="1" as="geometry">
            <mxPoint x="408" y="911" as="sourcePoint" />
            <mxPoint x="408" y="960" as="targetPoint" />
          </mxGeometry>
        </mxCell>
        <mxCell id="aLScRH_i79n0lj_p927F-1" value="selenium" style="html=1;shadow=0;dashed=0;shape=mxgraph.bootstrap.rrect;rSize=5;strokeColor=#666666;strokeWidth=1;fillColor=#f5f5f5;fontColor=#333333;whiteSpace=wrap;align=center;verticalAlign=middle;spacingLeft=0;fontStyle=0;fontSize=16;spacing=5;" parent="1" vertex="1">
          <mxGeometry x="575" y="830" width="160" height="80" as="geometry" />
        </mxCell>
        <mxCell id="aLScRH_i79n0lj_p927F-2" value="" style="group" parent="1" vertex="1" connectable="0">
          <mxGeometry x="565" y="959" width="170" height="110" as="geometry" />
        </mxCell>
        <mxCell id="aLScRH_i79n0lj_p927F-3" value="" style="rounded=1;whiteSpace=wrap;html=1;" parent="aLScRH_i79n0lj_p927F-2" vertex="1">
          <mxGeometry width="120" height="60" as="geometry" />
        </mxCell>
        <mxCell id="aLScRH_i79n0lj_p927F-4" value="" style="rounded=1;whiteSpace=wrap;html=1;" parent="aLScRH_i79n0lj_p927F-2" vertex="1">
          <mxGeometry x="10" y="10" width="120" height="60" as="geometry" />
        </mxCell>
        <mxCell id="aLScRH_i79n0lj_p927F-5" value="" style="rounded=1;whiteSpace=wrap;html=1;" parent="aLScRH_i79n0lj_p927F-2" vertex="1">
          <mxGeometry x="20" y="20" width="120" height="60" as="geometry" />
        </mxCell>
        <mxCell id="aLScRH_i79n0lj_p927F-6" value="" style="rounded=1;whiteSpace=wrap;html=1;" parent="aLScRH_i79n0lj_p927F-2" vertex="1">
          <mxGeometry x="30" y="30" width="120" height="60" as="geometry" />
        </mxCell>
        <mxCell id="aLScRH_i79n0lj_p927F-7" value="" style="rounded=1;whiteSpace=wrap;html=1;" parent="aLScRH_i79n0lj_p927F-2" vertex="1">
          <mxGeometry x="40" y="40" width="120" height="60" as="geometry" />
        </mxCell>
        <mxCell id="aLScRH_i79n0lj_p927F-8" value="Structured Data" style="rounded=1;whiteSpace=wrap;html=1;" parent="aLScRH_i79n0lj_p927F-2" vertex="1">
          <mxGeometry x="50" y="50" width="120" height="60" as="geometry" />
        </mxCell>
        <mxCell id="aLScRH_i79n0lj_p927F-9" value="" style="endArrow=classic;html=1;rounded=0;entryX=0.472;entryY=-0.01;entryDx=0;entryDy=0;entryPerimeter=0;exitX=0.461;exitY=1;exitDx=0;exitDy=0;exitPerimeter=0;" parent="1" edge="1">
          <mxGeometry width="50" height="50" relative="1" as="geometry">
            <mxPoint x="634" y="911" as="sourcePoint" />
            <mxPoint x="634" y="960" as="targetPoint" />
          </mxGeometry>
        </mxCell>
        <mxCell id="aLScRH_i79n0lj_p927F-10" value="playwright" style="html=1;shadow=0;dashed=0;shape=mxgraph.bootstrap.rrect;rSize=5;strokeColor=#666666;strokeWidth=1;fillColor=#f5f5f5;fontColor=#333333;whiteSpace=wrap;align=center;verticalAlign=middle;spacingLeft=0;fontStyle=0;fontSize=16;spacing=5;" parent="1" vertex="1">
          <mxGeometry x="90" y="830" width="160" height="80" as="geometry" />
        </mxCell>
        <mxCell id="aLScRH_i79n0lj_p927F-11" value="" style="group" parent="1" vertex="1" connectable="0">
          <mxGeometry x="95" y="959" width="170" height="110" as="geometry" />
        </mxCell>
        <mxCell id="aLScRH_i79n0lj_p927F-12" value="" style="rounded=1;whiteSpace=wrap;html=1;" parent="aLScRH_i79n0lj_p927F-11" vertex="1">
          <mxGeometry width="120" height="60" as="geometry" />
        </mxCell>
        <mxCell id="aLScRH_i79n0lj_p927F-13" value="" style="rounded=1;whiteSpace=wrap;html=1;" parent="aLScRH_i79n0lj_p927F-11" vertex="1">
          <mxGeometry x="10" y="10" width="120" height="60" as="geometry" />
        </mxCell>
        <mxCell id="aLScRH_i79n0lj_p927F-14" value="" style="rounded=1;whiteSpace=wrap;html=1;" parent="aLScRH_i79n0lj_p927F-11" vertex="1">
          <mxGeometry x="20" y="20" width="120" height="60" as="geometry" />
        </mxCell>
        <mxCell id="aLScRH_i79n0lj_p927F-15" value="" style="rounded=1;whiteSpace=wrap;html=1;" parent="aLScRH_i79n0lj_p927F-11" vertex="1">
          <mxGeometry x="30" y="30" width="120" height="60" as="geometry" />
        </mxCell>
        <mxCell id="aLScRH_i79n0lj_p927F-16" value="" style="rounded=1;whiteSpace=wrap;html=1;" parent="aLScRH_i79n0lj_p927F-11" vertex="1">
          <mxGeometry x="40" y="40" width="120" height="60" as="geometry" />
        </mxCell>
        <mxCell id="aLScRH_i79n0lj_p927F-17" value="Structured Data" style="rounded=1;whiteSpace=wrap;html=1;" parent="aLScRH_i79n0lj_p927F-11" vertex="1">
          <mxGeometry x="50" y="50" width="120" height="60" as="geometry" />
        </mxCell>
        <mxCell id="aLScRH_i79n0lj_p927F-18" value="" style="endArrow=classic;html=1;rounded=0;entryX=0.472;entryY=-0.01;entryDx=0;entryDy=0;entryPerimeter=0;exitX=0.461;exitY=1;exitDx=0;exitDy=0;exitPerimeter=0;" parent="1" edge="1">
          <mxGeometry width="50" height="50" relative="1" as="geometry">
            <mxPoint x="164" y="911" as="sourcePoint" />
            <mxPoint x="164" y="960" as="targetPoint" />
          </mxGeometry>
        </mxCell>
        <mxCell id="aLScRH_i79n0lj_p927F-19" value="" style="endArrow=none;html=1;rounded=0;" parent="1" edge="1">
          <mxGeometry width="50" height="50" relative="1" as="geometry">
            <mxPoint x="170" y="800" as="sourcePoint" />
            <mxPoint x="650" y="800" as="targetPoint" />
          </mxGeometry>
        </mxCell>
        <mxCell id="aLScRH_i79n0lj_p927F-20" value="" style="endArrow=classic;html=1;rounded=0;" parent="1" target="aLScRH_i79n0lj_p927F-10" edge="1">
          <mxGeometry width="50" height="50" relative="1" as="geometry">
            <mxPoint x="170" y="800" as="sourcePoint" />
            <mxPoint x="660" y="1030" as="targetPoint" />
          </mxGeometry>
        </mxCell>
        <mxCell id="aLScRH_i79n0lj_p927F-21" value="" style="endArrow=classic;html=1;rounded=0;entryX=0.473;entryY=0.028;entryDx=0;entryDy=0;entryPerimeter=0;" parent="1" target="aLScRH_i79n0lj_p927F-1" edge="1">
          <mxGeometry width="50" height="50" relative="1" as="geometry">
            <mxPoint x="651" y="800" as="sourcePoint" />
            <mxPoint x="470" y="940" as="targetPoint" />
          </mxGeometry>
        </mxCell>
        <mxCell id="aLScRH_i79n0lj_p927F-22" value="..." style="text;html=1;strokeColor=none;fillColor=none;align=center;verticalAlign=middle;whiteSpace=wrap;rounded=0;fontStyle=1;fontSize=22;" parent="1" vertex="1">
          <mxGeometry x="657" y="777" width="60" height="30" as="geometry" />
        </mxCell>
        <mxCell id="aLScRH_i79n0lj_p927F-23" value="..." style="text;html=1;strokeColor=none;fillColor=none;align=center;verticalAlign=middle;whiteSpace=wrap;rounded=0;fontStyle=1;fontSize=22;" parent="1" vertex="1">
          <mxGeometry x="101" y="780" width="60" height="30" as="geometry" />
        </mxCell>
      </root>
    </mxGraphModel>
  </diagram>
  <diagram id="Eu_EKEyQwgm5o117iaTy" name="from product fields to data">
    <mxGraphModel dx="3844" dy="1480" grid="0" gridSize="10" guides="0" tooltips="1" connect="1" arrows="1" fold="1" page="1" pageScale="1" pageWidth="827" pageHeight="1169" math="0" shadow="0">
      <root>
        <mxCell id="0" />
        <mxCell id="1" parent="0" />
        <mxCell id="O8hGZpa3DmFJVSImoCi4-1" value="" style="group" parent="1" vertex="1" connectable="0">
          <mxGeometry x="329" y="150" width="170" height="110" as="geometry" />
        </mxCell>
        <mxCell id="O8hGZpa3DmFJVSImoCi4-2" value="" style="rounded=1;whiteSpace=wrap;html=1;" parent="O8hGZpa3DmFJVSImoCi4-1" vertex="1">
          <mxGeometry width="120" height="60" as="geometry" />
        </mxCell>
        <mxCell id="O8hGZpa3DmFJVSImoCi4-3" value="" style="rounded=1;whiteSpace=wrap;html=1;" parent="O8hGZpa3DmFJVSImoCi4-1" vertex="1">
          <mxGeometry x="10" y="10" width="120" height="60" as="geometry" />
        </mxCell>
        <mxCell id="O8hGZpa3DmFJVSImoCi4-4" value="" style="rounded=1;whiteSpace=wrap;html=1;" parent="O8hGZpa3DmFJVSImoCi4-1" vertex="1">
          <mxGeometry x="20" y="20" width="120" height="60" as="geometry" />
        </mxCell>
        <mxCell id="O8hGZpa3DmFJVSImoCi4-5" value="" style="rounded=1;whiteSpace=wrap;html=1;" parent="O8hGZpa3DmFJVSImoCi4-1" vertex="1">
          <mxGeometry x="30" y="30" width="120" height="60" as="geometry" />
        </mxCell>
        <mxCell id="O8hGZpa3DmFJVSImoCi4-6" value="" style="rounded=1;whiteSpace=wrap;html=1;" parent="O8hGZpa3DmFJVSImoCi4-1" vertex="1">
          <mxGeometry x="40" y="40" width="120" height="60" as="geometry" />
        </mxCell>
        <mxCell id="O8hGZpa3DmFJVSImoCi4-7" value="Structured Data" style="rounded=1;whiteSpace=wrap;html=1;" parent="O8hGZpa3DmFJVSImoCi4-1" vertex="1">
          <mxGeometry x="50" y="50" width="120" height="60" as="geometry" />
        </mxCell>
        <mxCell id="FKtxxmM6qdApRjVbk97o-1" value="ProductFields" style="swimlane;fontStyle=0;childLayout=stackLayout;horizontal=1;startSize=30;horizontalStack=0;resizeParent=1;resizeParentMax=0;resizeLast=0;collapsible=1;marginBottom=0;whiteSpace=wrap;html=1;" parent="1" vertex="1">
          <mxGeometry x="310" y="357" width="226" height="180" as="geometry" />
        </mxCell>
        <mxCell id="FKtxxmM6qdApRjVbk97o-2" value="id_product" style="text;strokeColor=default;fillColor=none;align=left;verticalAlign=middle;spacingLeft=4;spacingRight=4;overflow=hidden;points=[[0,0.5],[1,0.5]];portConstraint=eastwest;rotatable=0;whiteSpace=wrap;html=1;" parent="FKtxxmM6qdApRjVbk97o-1" vertex="1">
          <mxGeometry y="30" width="226" height="30" as="geometry" />
        </mxCell>
        <mxCell id="FKtxxmM6qdApRjVbk97o-3" value="id_supplier" style="text;strokeColor=default;fillColor=none;align=left;verticalAlign=middle;spacingLeft=4;spacingRight=4;overflow=hidden;points=[[0,0.5],[1,0.5]];portConstraint=eastwest;rotatable=0;whiteSpace=wrap;html=1;" parent="FKtxxmM6qdApRjVbk97o-1" vertex="1">
          <mxGeometry y="60" width="226" height="30" as="geometry" />
        </mxCell>
        <mxCell id="FKtxxmM6qdApRjVbk97o-4" value="id_category_default" style="text;strokeColor=default;fillColor=none;align=left;verticalAlign=middle;spacingLeft=4;spacingRight=4;overflow=hidden;points=[[0,0.5],[1,0.5]];portConstraint=eastwest;rotatable=0;whiteSpace=wrap;html=1;" parent="FKtxxmM6qdApRjVbk97o-1" vertex="1">
          <mxGeometry y="90" width="226" height="30" as="geometry" />
        </mxCell>
        <mxCell id="FKtxxmM6qdApRjVbk97o-8" value="product_name" style="text;strokeColor=default;fillColor=none;align=left;verticalAlign=middle;spacingLeft=4;spacingRight=4;overflow=hidden;points=[[0,0.5],[1,0.5]];portConstraint=eastwest;rotatable=0;whiteSpace=wrap;horizontal=1;labelPosition=center;verticalLabelPosition=middle;fontStyle=0;fontSize=12;" parent="FKtxxmM6qdApRjVbk97o-1" vertex="1">
          <mxGeometry y="120" width="226" height="30" as="geometry" />
        </mxCell>
        <mxCell id="FKtxxmM6qdApRjVbk97o-9" value="" style="endArrow=none;html=1;rounded=0;" parent="FKtxxmM6qdApRjVbk97o-1" edge="1">
          <mxGeometry width="50" height="50" relative="1" as="geometry">
            <mxPoint x="115" y="180" as="sourcePoint" />
            <mxPoint x="115" y="30" as="targetPoint" />
          </mxGeometry>
        </mxCell>
        <mxCell id="vLM_VNbRJ2anpsjZhxWM-1" value="..." style="text;strokeColor=none;fillColor=none;align=left;verticalAlign=middle;spacingLeft=4;spacingRight=4;overflow=hidden;points=[[0,0.5],[1,0.5]];portConstraint=eastwest;rotatable=0;whiteSpace=wrap;horizontal=1;labelPosition=center;verticalLabelPosition=middle;fontStyle=1;fontSize=26;" vertex="1" parent="FKtxxmM6qdApRjVbk97o-1">
          <mxGeometry y="150" width="226" height="30" as="geometry" />
        </mxCell>
        <mxCell id="FKtxxmM6qdApRjVbk97o-5" value="" style="endArrow=classic;html=1;rounded=0;exitX=0.5;exitY=1;exitDx=0;exitDy=0;entryX=0.569;entryY=-0.01;entryDx=0;entryDy=0;entryPerimeter=0;" parent="1" source="O8hGZpa3DmFJVSImoCi4-7" target="FKtxxmM6qdApRjVbk97o-1" edge="1">
          <mxGeometry width="50" height="50" relative="1" as="geometry">
            <mxPoint x="490" y="360" as="sourcePoint" />
            <mxPoint x="540" y="310" as="targetPoint" />
          </mxGeometry>
        </mxCell>
        <mxCell id="FKtxxmM6qdApRjVbk97o-10" value="" style="endArrow=none;html=1;rounded=0;" parent="1" edge="1">
          <mxGeometry width="50" height="50" relative="1" as="geometry">
            <mxPoint x="360" y="587" as="sourcePoint" />
            <mxPoint x="520" y="587" as="targetPoint" />
          </mxGeometry>
        </mxCell>
        <mxCell id="FKtxxmM6qdApRjVbk97o-12" value="" style="endArrow=none;html=1;rounded=0;entryX=0.574;entryY=1.01;entryDx=0;entryDy=0;entryPerimeter=0;" parent="1" target="vLM_VNbRJ2anpsjZhxWM-1" edge="1">
          <mxGeometry width="50" height="50" relative="1" as="geometry">
            <mxPoint x="440" y="587" as="sourcePoint" />
            <mxPoint x="440" y="540" as="targetPoint" />
          </mxGeometry>
        </mxCell>
        <mxCell id="FKtxxmM6qdApRjVbk97o-13" value="" style="endArrow=classic;html=1;rounded=0;entryX=0.353;entryY=-0.01;entryDx=0;entryDy=0;entryPerimeter=0;" parent="1" target="FKtxxmM6qdApRjVbk97o-16" edge="1">
          <mxGeometry width="50" height="50" relative="1" as="geometry">
            <mxPoint x="360" y="587" as="sourcePoint" />
            <mxPoint x="360" y="657" as="targetPoint" />
          </mxGeometry>
        </mxCell>
        <mxCell id="FKtxxmM6qdApRjVbk97o-14" value="" style="endArrow=classic;html=1;rounded=0;" parent="1" edge="1">
          <mxGeometry width="50" height="50" relative="1" as="geometry">
            <mxPoint x="520" y="587" as="sourcePoint" />
            <mxPoint x="520" y="657" as="targetPoint" />
          </mxGeometry>
        </mxCell>
        <mxCell id="FKtxxmM6qdApRjVbk97o-16" value="Dataset" style="shape=cube;whiteSpace=wrap;html=1;boundedLbl=1;backgroundOutline=1;darkOpacity=0.05;darkOpacity2=0.1;" parent="1" vertex="1">
          <mxGeometry x="318" y="777" width="120" height="80" as="geometry" />
        </mxCell>
        <mxCell id="FKtxxmM6qdApRjVbk97o-17" value="db" style="shape=cylinder3;whiteSpace=wrap;html=1;boundedLbl=1;backgroundOutline=1;size=15;" parent="1" vertex="1">
          <mxGeometry x="489" y="657" width="60" height="80" as="geometry" />
        </mxCell>
        <mxCell id="FKtxxmM6qdApRjVbk97o-18" value="" style="endArrow=classic;html=1;rounded=0;exitX=0.5;exitY=1;exitDx=0;exitDy=0;exitPerimeter=0;entryX=0.996;entryY=0.507;entryDx=0;entryDy=0;entryPerimeter=0;" parent="1" source="FKtxxmM6qdApRjVbk97o-17" target="FKtxxmM6qdApRjVbk97o-16" edge="1">
          <mxGeometry width="50" height="50" relative="1" as="geometry">
            <mxPoint x="480" y="847" as="sourcePoint" />
            <mxPoint x="530" y="797" as="targetPoint" />
            <Array as="points">
              <mxPoint x="520" y="818" />
            </Array>
          </mxGeometry>
        </mxCell>
        <mxCell id="L4vrvKXawg3aMjkvnTjr-1" value="&lt;font color=&quot;#e6e6e6&quot;&gt;&lt;span style=&quot;font-size: 18px;&quot;&gt;Product Fislds&lt;/span&gt;&lt;/font&gt;" style="html=1;shadow=0;dashed=0;shape=mxgraph.bootstrap.rrect;rSize=5;strokeColor=none;strokeWidth=1;fillColor=#33A64C;fontColor=#FFFFFF;whiteSpace=wrap;align=center;verticalAlign=middle;spacingLeft=0;fontStyle=1;fontSize=14;spacing=5;" vertex="1" parent="1">
          <mxGeometry x="200" y="297" width="143" height="50" as="geometry" />
        </mxCell>
        <mxCell id="L4vrvKXawg3aMjkvnTjr-2" value="&lt;font color=&quot;#e6e6e6&quot;&gt;&lt;span style=&quot;font-size: 18px;&quot;&gt;Prestashop&lt;/span&gt;&lt;/font&gt;" style="html=1;shadow=0;dashed=0;shape=mxgraph.bootstrap.rrect;rSize=5;strokeColor=none;strokeWidth=1;fillColor=#33A64C;fontColor=#FFFFFF;whiteSpace=wrap;align=center;verticalAlign=middle;spacingLeft=0;fontStyle=1;fontSize=14;spacing=5;" vertex="1" parent="1">
          <mxGeometry x="536" y="600" width="143" height="50" as="geometry" />
        </mxCell>
        <mxCell id="HcunbLrO60W0ILLELnLm-1" value="&lt;font color=&quot;#e6e6e6&quot;&gt;&lt;span style=&quot;font-size: 18px;&quot;&gt;JSON&lt;/span&gt;&lt;/font&gt;" style="html=1;shadow=0;dashed=0;shape=mxgraph.bootstrap.rrect;rSize=5;strokeColor=none;strokeWidth=1;fillColor=#33A64C;fontColor=#FFFFFF;whiteSpace=wrap;align=center;verticalAlign=middle;spacingLeft=0;fontStyle=1;fontSize=14;spacing=5;" vertex="1" parent="1">
          <mxGeometry x="200" y="710" width="143" height="50" as="geometry" />
        </mxCell>
        <mxCell id="xOxRZ6NOPNRgMB2lqq8a-1" value="&lt;span style=&quot;color: rgb(0, 0, 0); font-family: Helvetica; font-size: 48px; font-style: normal; font-variant-ligatures: normal; font-variant-caps: normal; font-weight: 400; letter-spacing: normal; orphans: 2; text-indent: 0px; text-transform: none; widows: 2; word-spacing: 0px; -webkit-text-stroke-width: 0px; background-color: rgb(251, 251, 251); text-decoration-thickness: initial; text-decoration-style: initial; text-decoration-color: initial; float: none; display: inline !important;&quot;&gt;מסד נתונים&lt;br&gt;&lt;/span&gt;" style="text;whiteSpace=wrap;html=1;align=right;" vertex="1" parent="1">
          <mxGeometry x="529" y="670" width="150" height="80" as="geometry" />
        </mxCell>
      </root>
    </mxGraphModel>
  </diagram>
</mxfile>
